<svg id="acb9d1c5-fd14-45a9-a66e-b0425afa02ba" data-name="icone" xmlns="http://www.w3.org/2000/svg" viewBox="0 0 497.62959 476.63213"><title>logo_multi_tools</title><g id="a93a1691-9187-468d-bd90-77a8e4542335" data-name="clémolette"><path d="M265.40216,209.95886,377.413,317.76466c58.11518-18.74186,118.90182,22.59134,118.90182,81.77518a82.81181,82.81181,0,0,1-4.69364,27.54923l-44.44884-42.88723H418.84614l-28.66645,27.44438v27.1186l44.79695,42.55395a93.62969,93.62969,0,0,1-28.776,4.49729c-61.81142,0-104.99689-58.199-85.42047-113.83668L122.587,182.23534a93.648,93.648,0,0,1-28.7877,4.4973c-49.77222,0-90.11412-38.62209-90.11412-86.27248a82.83373,82.83373,0,0,1,4.69364-27.553l44.44884,42.88722H81.15386L108.819,88.35V61.23144L65.02336,18.68123a93.62969,93.62969,0,0,1,28.776-4.49729c61.698,0,105.036,58.09041,85.42047,113.83294L295.17966,238.70955" transform="translate(-1.18521 -11.68394)" style="fill:#e5e5e5;stroke:#000;stroke-miterlimit:10;stroke-width:5px"/><path d="M234.59784,209.95886,122.587,317.76466C64.47185,299.0228,3.68521,340.356,3.68521,399.53984a82.81181,82.81181,0,0,0,4.69364,27.54923l44.44884-42.88723H81.15386l28.66645,27.44438v27.1186l-44.797,42.55395a93.62969,93.62969,0,0,0,28.776,4.49729c61.81142,0,104.99689-58.199,85.42047-113.83668L377.413,182.23534a93.648,93.648,0,0,0,28.7877,4.4973c49.77222,0,90.11412-38.62209,90.11412-86.27248a82.83373,82.83373,0,0,0-4.69364-27.553l-44.44884,42.88722H418.84614L391.181,88.35V61.23144l43.79564-42.55021a93.62969,93.62969,0,0,0-28.776-4.49729c-61.698,0-105.036,58.09041-85.42047,113.83294L204.82034,238.70955" transform="translate(-1.18521 -11.68394)" style="fill:#e5e5e5;stroke:#000;stroke-miterlimit:10;stroke-width:5px"/></g><g id="a7049ce1-12f9-4200-9db3-691145bb4a0c" data-name="cpu"><path d="M156.57607,142.55741h185.6155a15.41967,15.41967,0,0,1,15.4199,15.41991V343.59284a15.42,15.42,0,0,1-15.4199,15.4199H156.57607a15.42006,15.42006,0,0,1-15.41991-15.4199V157.97732A15.42007,15.42007,0,0,1,156.57607,142.55741Z" transform="translate(-1.18521 -11.68394)" style="fill:#4d4d4d;stroke:#000;stroke-miterlimit:10;stroke-width:2.4px"/><rect x="207.73628" y="198.64189" width="80.91974" height="80.91972" style="fill:#ccc;stroke:#000;stroke-miterlimit:10;stroke-width:2.4px"/><polygon points="288.657 279.56 288.657 198.643 272.179 198.643 224.218 279.56 288.657 279.56" style="fill:#adadad;stroke:#000;stroke-miterlimit:10;stroke-width:2.4px"/><path d="M179.75017,159.95515a4.64,4.64,0,0,1-4.63989-4.63989V96.26489a4.6399,4.6399,0,0,1,9.27979,0v59.05037A4.6396,4.6396,0,0,1,179.75017,159.95515Z" transform="translate(-1.18521 -11.68394)" style="fill:#e5e5e5;stroke:#000;stroke-miterlimit:10;stroke-width:2.4px"/><path d="M214.87539,159.95515a4.64,4.64,0,0,1-4.63989-4.63989V96.26489a4.6399,4.6399,0,0,1,9.27979,0v59.05037A4.6396,4.6396,0,0,1,214.87539,159.95515Z" transform="translate(-1.18521 -11.68394)" style="fill:#e5e5e5;stroke:#000;stroke-miterlimit:10;stroke-width:2.4px"/><path d="M250,159.95515a4.64,4.64,0,0,1-4.63989-4.63989V96.26489a4.63989,4.63989,0,0,1,9.27978,0v59.05037A4.6396,4.6396,0,0,1,250,159.95515Z" transform="translate(-1.18521 -11.68394)" style="fill:#e5e5e5;stroke:#000;stroke-miterlimit:10;stroke-width:2.4px"/><path d="M285.12523,159.95515a4.64,4.64,0,0,1-4.63989-4.63989V96.26489a4.63989,4.63989,0,0,1,9.27978,0v59.05037A4.6396,4.6396,0,0,1,285.12523,159.95515Z" transform="translate(-1.18521 -11.68394)" style="fill:#e5e5e5;stroke:#000;stroke-miterlimit:10;stroke-width:2.4px"/><path d="M320.24984,159.95515a4.64,4.64,0,0,1-4.6399-4.63989V96.26489a4.6399,4.6399,0,0,1,9.27979,0v59.05037A4.6396,4.6396,0,0,1,320.24984,159.95515Z" transform="translate(-1.18521 -11.68394)" style="fill:#e5e5e5;stroke:#000;stroke-miterlimit:10;stroke-width:2.4px"/><path d="M179.75017,408.375a4.64,4.64,0,0,1-4.63989-4.63989V344.68473a4.63989,4.63989,0,0,1,9.27979,0v59.05038A4.64,4.64,0,0,1,179.75017,408.375Z" transform="translate(-1.18521 -11.68394)" style="fill:#e5e5e5;stroke:#000;stroke-miterlimit:10;stroke-width:2.4px"/><path d="M214.87539,408.375a4.64,4.64,0,0,1-4.63989-4.63989V344.68473a4.6399,4.6399,0,0,1,9.27979,0v59.05038A4.64,4.64,0,0,1,214.87539,408.375Z" transform="translate(-1.18521 -11.68394)" style="fill:#e5e5e5;stroke:#000;stroke-miterlimit:10;stroke-width:2.4px"/><path d="M250,408.375a4.64,4.64,0,0,1-4.63989-4.63989V344.68473a4.63989,4.63989,0,0,1,9.27978,0v59.05038A4.64,4.64,0,0,1,250,408.375Z" transform="translate(-1.18521 -11.68394)" style="fill:#e5e5e5;stroke:#000;stroke-miterlimit:10;stroke-width:2.4px"/><path d="M285.12523,408.375a4.64,4.64,0,0,1-4.63989-4.63989V344.68473a4.63989,4.63989,0,0,1,9.27978,0v59.05038A4.64,4.64,0,0,1,285.12523,408.375Z" transform="translate(-1.18521 -11.68394)" style="fill:#e5e5e5;stroke:#000;stroke-miterlimit:10;stroke-width:2.4px"/><path d="M320.24984,408.375a4.64,4.64,0,0,1-4.6399-4.63989V344.68473a4.6399,4.6399,0,0,1,9.27979,0v59.05038A4.64,4.64,0,0,1,320.24984,408.375Z" transform="translate(-1.18521 -11.68394)" style="fill:#e5e5e5;stroke:#000;stroke-miterlimit:10;stroke-width:2.4px"/><path d="M403.73511,184.39007H344.68473a4.63989,4.63989,0,0,1,0-9.27979h59.05038a4.63989,4.63989,0,0,1,0,9.27979Z" transform="translate(-1.18521 -11.68394)" style="fill:#e5e5e5;stroke:#000;stroke-miterlimit:10;stroke-width:2.4px"/><path d="M403.73511,219.51529H344.68473a4.63989,4.63989,0,0,1,0-9.27979h59.05038a4.6399,4.6399,0,0,1,0,9.27979Z" transform="translate(-1.18521 -11.68394)" style="fill:#e5e5e5;stroke:#000;stroke-miterlimit:10;stroke-width:2.4px"/><path d="M403.73511,254.63989H344.68473a4.63989,4.63989,0,1,1,0-9.27978h59.05038a4.63989,4.63989,0,0,1,0,9.27978Z" transform="translate(-1.18521 -11.68394)" style="fill:#e5e5e5;stroke:#000;stroke-miterlimit:10;stroke-width:2.4px"/><path d="M403.73511,289.76512H344.68473a4.63989,4.63989,0,1,1,0-9.27978h59.05038a4.63989,4.63989,0,1,1,0,9.27978Z" transform="translate(-1.18521 -11.68394)" style="fill:#e5e5e5;stroke:#000;stroke-miterlimit:10;stroke-width:2.4px"/><path d="M403.73511,324.88973H344.68473a4.6399,4.6399,0,0,1,0-9.27979h59.05038a4.6399,4.6399,0,0,1,0,9.27979Z" transform="translate(-1.18521 -11.68394)" style="fill:#e5e5e5;stroke:#000;stroke-miterlimit:10;stroke-width:2.4px"/><path d="M155.31588,184.39007h-59.051a4.6399,4.6399,0,0,1,0-9.27979h59.051a4.6399,4.6399,0,0,1,0,9.27979Z" transform="translate(-1.18521 -11.68394)" style="fill:#e5e5e5;stroke:#000;stroke-miterlimit:10;stroke-width:2.4px"/><path d="M155.31588,219.51529h-59.051a4.6399,4.6399,0,0,1,0-9.27979h59.051a4.6399,4.6399,0,0,1,0,9.27979Z" transform="translate(-1.18521 -11.68394)" style="fill:#e5e5e5;stroke:#000;stroke-miterlimit:10;stroke-width:2.4px"/><path d="M155.31588,254.63989h-59.051a4.63989,4.63989,0,1,1,0-9.27978h59.051a4.63989,4.63989,0,0,1,0,9.27978Z" transform="translate(-1.18521 -11.68394)" style="fill:#e5e5e5;stroke:#000;stroke-miterlimit:10;stroke-width:2.4px"/><path d="M155.31588,289.76512h-59.051a4.63989,4.63989,0,1,1,0-9.27978h59.051a4.63989,4.63989,0,1,1,0,9.27978Z" transform="translate(-1.18521 -11.68394)" style="fill:#e5e5e5;stroke:#000;stroke-miterlimit:10;stroke-width:2.4px"/><path d="M155.31588,324.88973h-59.051a4.6399,4.6399,0,0,1,0-9.27979h59.051a4.6399,4.6399,0,0,1,0,9.27979Z" transform="translate(-1.18521 -11.68394)" style="fill:#e5e5e5;stroke:#000;stroke-miterlimit:10;stroke-width:2.4px"/></g><g id="f3fbd190-4681-4142-92ce-a04094b57ff3" data-name="grandparents"><path d="M334.55908,250a84.25335,84.25335,0,0,1-22.08776,56.9882c-8.73831,9.57367-20.92375,8.16986-33.22544,12.93291-8.17415,3.165-15.68736,14.058-24.86268,14.52632q-1.905.09713-3.83158.11c-.18365.00132-18.68293-24.41214-18.86692-24.41214-26.84718,0-34.70985-6.70031-47.94665-7.608A84.56049,84.56049,0,1,1,334.55908,250Z" transform="translate(-1.18521 -11.68394)" style="fill:#4d4d4d"/><path d="M286.12919,165.44092h-6.84664a35.95491,35.95491,0,0,0-35.95479,35.95478v33.80117a35.95492,35.95492,0,0,0,35.95479,35.95479h6.84664A35.95492,35.95492,0,0,0,322.084,235.19687V201.3957A35.9549,35.9549,0,0,0,286.12919,165.44092Z" transform="translate(-1.18521 -11.68394)" style="fill:#f9f6f6"/><path d="M292.59334,270.5723a35.94633,35.94633,0,0,1-6.46415.58135h-6.84731a35.95534,35.95534,0,0,1-35.95413-35.95743V201.39571a35.95252,35.95252,0,0,1,35.95413-35.95412h6.84731a35.94633,35.94633,0,0,1,6.46415.58134,35.96114,35.96114,0,0,0-29.49659,35.37278v33.80051A35.96467,35.96467,0,0,0,292.59334,270.5723Z" transform="translate(-1.18521 -11.68394)" style="fill:#dddaec"/><path d="M312.47132,301.31349v5.67471a84.34036,84.34036,0,0,1-58.08812,27.45858V301.31349a21.05218,21.05218,0,0,1,21.05059-21.05389h15.98365A21.055,21.055,0,0,1,312.47132,301.31349Z" transform="translate(-1.18521 -11.68394)" style="fill:#9d66d5"/><path d="M289.44549,280.25959a21.05782,21.05782,0,0,0-21.05719,21.05389V332.5508a84.58547,84.58547,0,0,1-14.0051,1.896V301.31348a21.05289,21.05289,0,0,1,21.05389-21.05389Z" transform="translate(-1.18521 -11.68394)" style="fill:#734a9b"/><path d="M292.85857,256.75482v24.94427a9.52611,9.52611,0,0,1-19.05222,0V256.75482Z" transform="translate(-1.18521 -11.68394)" style="fill:#ffddce"/><path d="M292.85857,256.75482v23.773a28.64887,28.64887,0,0,1-19.05222-4.02184V256.75482Z" transform="translate(-1.18521 -11.68394)" style="fill:#ffcbbe"/><path d="M278.28865,266.43815v23.34062a9.51937,9.51937,0,0,1-4.4823-8.07969V266.43815Z" transform="translate(-1.18521 -11.68394)" style="fill:#ffcbbe"/><path d="M319.32358,240.16241H256.02451a7.42006,7.42006,0,0,1,0-14.84012h63.29907a7.42006,7.42006,0,1,1,0,14.84012Z" transform="translate(-1.18521 -11.68394)" style="fill:#ffcbbe"/><path d="M256.02451,235.91233a3.17,3.17,0,0,1,0-6.33995h63.29875a3.17,3.17,0,0,1,0,6.33995Z" transform="translate(-1.18521 -11.68394)" style="fill:#eaac9d"/><path d="M317.51118,220.11993v27.76576a28.62127,28.62127,0,1,1-57.24253,0V220.11993a28.77145,28.77145,0,0,1,.34682-4.45917H284.2854a16.72266,16.72266,0,0,0,15.4915-10.48731,16.69531,16.69531,0,0,0,15.49479,10.48731h1.89268a28.77268,28.77268,0,0,1,.34682,4.45917Z" transform="translate(-1.18521 -11.68394)" style="fill:#ffddce"/><path d="M296.14019,275.57879a28.63945,28.63945,0,0,1-35.87155-27.6931V220.11993a28.77145,28.77145,0,0,1,.34682-4.45917h14.49725C274.8848,217.11411,272,217.48388,272,219l2.76589,28.88569a28.631,28.631,0,0,0,21.37429,27.6931Z" transform="translate(-1.18521 -11.68394)" style="fill:#ffcbbe"/><path d="M296.31856,210.52445V240.315h-7.27011V214.9671A16.61106,16.61106,0,0,0,296.31856,210.52445Z" transform="translate(-1.18521 -11.68394)" style="fill:#ffcbbe"/><path d="M297.03632,234.98019h-5.85538a4.07172,4.07172,0,0,0,0,8.14344h5.85538a4.07172,4.07172,0,0,0,0-8.14344Z" transform="translate(-1.18521 -11.68394)" style="fill:#ffcbbe"/><path d="M279.68867,230.17471h-1.06525a3.10194,3.10194,0,0,1-3.10193-3.10194v-4.60583a3.10193,3.10193,0,0,1,3.10193-3.10193h1.06525a3.10193,3.10193,0,0,1,3.10193,3.10193v4.60583A3.10216,3.10216,0,0,1,279.68867,230.17471Z" transform="translate(-1.18521 -11.68394)"/><path d="M305.10078,230.17471h-1.06524a3.10193,3.10193,0,0,1-3.10193-3.10194v-4.60583a3.10193,3.10193,0,0,1,3.10193-3.10193h1.06524a3.10193,3.10193,0,0,1,3.10193,3.10193v4.60583A3.10215,3.10215,0,0,1,305.10078,230.17471Z" transform="translate(-1.18521 -11.68394)"/><path d="M298.55947,257.88379H289.4893c-1.89991,0-3.44053-1.08176-3.44053-2.41654,0-1.33446,1.54014-2.41655,3.44053-2.41655h9.07017c1.89991,0,3.44053,1.08176,3.44053,2.41655C302,256.8017,300.45938,257.88379,298.55947,257.88379Z" transform="translate(-1.18521 -11.68394)"/><path d="M308.1707,254.78519a1.75746,1.75746,0,0,1-1.75758-1.75758v-4.39377a1.75758,1.75758,0,1,1,3.51515,0v4.39377A1.75746,1.75746,0,0,1,308.1707,254.78519Z" transform="translate(-1.18521 -11.68394)" style="fill:#ffcbbe"/><path d="M279.86422,254.78519a1.75746,1.75746,0,0,1-1.75758-1.75758v-4.39377a1.75758,1.75758,0,1,1,3.51515,0v4.39377A1.75746,1.75746,0,0,1,279.86422,254.78519Z" transform="translate(-1.18521 -11.68394)" style="fill:#ffcbbe"/><path d="M262.94745,206.84019h-4.076a3.11746,3.11746,0,0,0,0-6.23492h-20.603a3.11746,3.11746,0,1,0,0,6.23492h4.076a3.11746,3.11746,0,1,0,0,6.23491h-6.114a3.11746,3.11746,0,1,0,0,6.23491h20.603a3.11746,3.11746,0,0,0,0-6.23491h6.114a3.11746,3.11746,0,0,0,0-6.23491Z" transform="translate(-1.18521 -11.68394)" style="fill:#f9f6f6"/><path d="M250.55162,311.07412v23.48166c-.18167.0033-.36664.0033-.55162.0033a84.397,84.397,0,0,1-66.26-32.02345,24.77022,24.77022,0,0,1,23.25044-16.22477h18.79788a24.76316,24.76316,0,0,1,24.76326,24.76326Z" transform="translate(-1.18521 -11.68394)" style="fill:#78c2a4"/><path d="M223.46628,286.31086A24.76317,24.76317,0,0,0,198.703,311.07412v6.15365a85.01844,85.01844,0,0,1-14.963-14.69214,24.7637,24.7637,0,0,1,23.25044-16.22477Z" transform="translate(-1.18521 -11.68394)" style="fill:#66b394"/><path d="M227.4835,258.664v29.338a11.20408,11.20408,0,0,1-22.40816,0V258.664Z" transform="translate(-1.18521 -11.68394)" style="fill:#ffddce"/><path d="M227.4835,258.664v27.96064a33.694,33.694,0,0,1-22.40816-4.73V258.664Z" transform="translate(-1.18521 -11.68394)" style="fill:#ffcbbe"/><path d="M210.34707,270.05305v27.452a11.19579,11.19579,0,0,1-5.27173-9.503v-17.949Z" transform="translate(-1.18521 -11.68394)" style="fill:#ffcbbe"/><path d="M258.61016,239.149h-74.449a8.72742,8.72742,0,1,1,0-17.45484h74.449a8.72742,8.72742,0,0,1,0,17.45484Z" transform="translate(-1.18521 -11.68394)" style="fill:#ffcbbe"/><path d="M184.16117,234.15013a3.72837,3.72837,0,1,1,0-7.45673h74.449a3.72837,3.72837,0,1,1,0,7.45673Z" transform="translate(-1.18521 -11.68394)" style="fill:#eaac9d"/><path d="M222.81623,281.895a33.66221,33.66221,0,0,1-33.66244-33.66244V216.10833a33.66245,33.66245,0,1,1,67.32489,0v32.12419A33.66284,33.66284,0,0,1,222.81624,281.895Z" transform="translate(-1.18521 -11.68394)" style="fill:#ffddce"/><path d="M230.51177,281.00907a33.68616,33.68616,0,0,1-41.358-32.77656V216.10666a33.68616,33.68616,0,0,1,41.358-32.77655,33.671,33.671,0,0,0-25.97219,32.77655v32.12585A33.671,33.671,0,0,0,230.51177,281.00907Z" transform="translate(-1.18521 -11.68394)" style="fill:#ffcbbe"/><path d="M231.55192,239.32706h-8.54906V220.84033a2.83043,2.83043,0,0,1,2.83042-2.83042h2.88855a2.83043,2.83043,0,0,1,2.83041,2.83042v18.48673Z" transform="translate(-1.18521 -11.68394)" style="fill:#ffcbbe"/><path d="M239.59329,209.96986H218.72338a2.30655,2.30655,0,1,1,0-4.61309h20.86991a2.30655,2.30655,0,0,1,0,4.61309Z" transform="translate(-1.18521 -11.68394)" style="fill:#ffcbbe"/><circle cx="244.20104" cy="215.64102" r="11.64306" style="fill:#e4f6ff"/><circle cx="214.35268" cy="215.64102" r="11.64306" style="fill:#e4f6ff"/><path d="M221.79029,208.87159h-5.84646a3.6334,3.6334,0,1,0,0,7.26679h5.84646a3.6334,3.6334,0,1,0,0-7.26679Z" transform="translate(-1.18521 -11.68394)" style="fill:#f9f6f6"/><path d="M247.0695,208.87159H241.223a3.6334,3.6334,0,1,0,0,7.26679h5.84647a3.6334,3.6334,0,0,0,0-7.26679Z" transform="translate(-1.18521 -11.68394)" style="fill:#f9f6f6"/><path d="M215.62079,230.6h-3.04711a2.75079,2.75079,0,0,1-2.75081-2.75082V226.122a2.75078,2.75078,0,0,1,2.75081-2.75082h3.04711a2.75079,2.75079,0,0,1,2.75081,2.75082v1.72718A2.75058,2.75058,0,0,1,215.62079,230.6Z" transform="translate(-1.18521 -11.68394)"/><path d="M242.64138,230.6h-3.04711a2.75079,2.75079,0,0,1-2.75081-2.75082V226.122a2.75078,2.75078,0,0,1,2.75081-2.75082h3.04711a2.75079,2.75079,0,0,1,2.75081,2.75082v1.72718A2.75058,2.75058,0,0,1,242.64138,230.6Z" transform="translate(-1.18521 -11.68394)"/><path d="M245.38624,213.53489a13.81094,13.81094,0,0,0-13.62194,11.64339h-4.583v4.294h4.583a13.79026,13.79026,0,1,0,13.62194-15.9374Zm0,23.28611a9.49622,9.49622,0,1,1,9.49638-9.496,9.50691,9.50691,0,0,1-9.49638,9.496Z" transform="translate(-1.18521 -11.68394)"/><path d="M232.39717,233.05383h-6.88694a4.78915,4.78915,0,1,0,0,9.57829h6.88694a4.78915,4.78915,0,1,0,0-9.57829Z" transform="translate(-1.18521 -11.68394)" style="fill:#ffcbbe"/><path d="M232.15937,255.99412H222.2428c-2.73813,0-4.95858,1.2294-4.95858,2.74618,0,1.51645,2.21986,2.74619,4.95858,2.74619h9.91657c2.73814,0,4.95858-1.2294,4.95858-2.74619C237.118,257.22385,234.8981,255.99412,232.15937,255.99412Z" transform="translate(-1.18521 -11.68394)"/><path d="M215.53788,213.53489a13.81211,13.81211,0,0,0-13.473,10.85593l-12.31061-4.70228a2.14715,2.14715,0,1,0-1.53231,4.01161l13.61831,5.2017a13.789,13.789,0,1,0,13.69758-15.367Zm0,23.28611a9.49622,9.49622,0,1,1,9.496-9.496,9.507,9.507,0,0,1-9.496,9.496Z" transform="translate(-1.18521 -11.68394)"/><path d="M205.82217,206.84019h-4.076a3.11746,3.11746,0,0,0,0-6.23492H181.14281a3.11746,3.11746,0,0,0,0,6.23492h4.076a3.11746,3.11746,0,0,0,0,6.23491h-6.114a3.11746,3.11746,0,0,0,0,6.23491h20.603a3.11746,3.11746,0,1,0,0-6.23491h6.114a3.11746,3.11746,0,0,0,.00033-6.23491Z" transform="translate(-1.18521 -11.68394)" style="fill:#f9f6f6"/><path d="M233.6573,202.28126H224.659a2.30655,2.30655,0,1,1,0-4.61309h8.99827a2.30655,2.30655,0,1,1,0,4.61309Z" transform="translate(-1.18521 -11.68394)" style="fill:#ffcbbe"/><path d="M229.15816,268.51943H225.863a1.65155,1.65155,0,0,1,0-3.30309h3.29516a1.65155,1.65155,0,1,1,0,3.30309Z" transform="translate(-1.18521 -11.68394)" style="fill:#ffcbbe"/></g><g id="b397ab48-bf80-457e-b01e-90a9b609fb5f" data-name="Capa 1"><g id="ba6f13fa-f354-40b4-a8a5-b95ae44c4ba0" data-name="verres" style="opacity:0.43"><circle cx="279.04674" cy="213.59818" r="7.86749" style="fill:#bbdefb"/><circle cx="304.64928" cy="213.59818" r="7.86749" style="fill:#bbdefb"/></g><path d="M316.63208,223.00043h-.21693a10.83511,10.83511,0,0,0-19.77484-3.62031,10.68288,10.68288,0,0,0-7.68108.00132,10.83509,10.83509,0,0,0-19.77565,3.619h-.21693C267.77,223.00043,253,219.80342,253,221s14.77,6.33358,15.96655,6.33358h.21693a10.83465,10.83465,0,0,0,21.31408-3.87867,6.05586,6.05586,0,0,1,4.60371-.00152,10.83458,10.83458,0,0,0,21.31388,3.88019h.21693c1.19658,0,1.16789-3.137,1.16789-4.33358S317.82866,223.00043,316.63208,223.00043Zm-36.83244,8.66641a6.49984,6.49984,0,1,1,6.49984-6.49983A6.50025,6.50025,0,0,1,279.79964,231.66684Zm25.99935,0a6.49984,6.49984,0,1,1,6.49983-6.49983A6.50025,6.50025,0,0,1,305.799,231.66684Z" transform="translate(-1.18521 -11.68394)"/></g></svg>