<svg id="Filled" height="512" viewBox="0 0 512 512" width="512" xmlns="http://www.w3.org/2000/svg"><path d="m48 488a24 24 0 0 1 -24-24 343.733 343.733 0 0 1 344-344h96a24 24 0 0 1 0 48h-96a296 296 0 0 0 -296 296 24 24 0 0 1 -24 24z" fill="#cfd2fc"/><path d="m336.02 264a24 24 0 0 1 -14.42-43.2l102.4-76.8-102.4-76.8a24 24 0 1 1 28.8-38.4l128 96a24 24 0 0 1 0 38.4l-128 96a23.893 23.893 0 0 1 -14.38 4.8z" fill="#cfd2fc"/><path d="m48 496a32.036 32.036 0 0 1 -32-32 351.731 351.731 0 0 1 352-351.995l-51.2-38.4a32 32 0 1 1 38.4-51.2l128 96a32 32 0 0 1 0 51.2l-128 96a31.736 31.736 0 0 1 -19.18 6.395 32 32 0 0 1 -19.22-57.6l51.2-38.4a288 288 0 0 0 -288 288 32.036 32.036 0 0 1 -32 32zm320-368a335.73 335.73 0 0 0 -336 336 16 16 0 0 0 32 0 304 304 0 0 1 304-304h24a8 8 0 0 1 4.8 14.4l-70.4 52.8a16 16 0 1 0 19.2 25.6l128-96a16 16 0 0 0 0-25.6l-128-96a16 16 0 1 0 -19.2 25.6l70.4 52.8a8 8 0 0 1 -4.8 14.4z"/></svg>